<svg xmlns="http://www.w3.org/2000/svg" width="1200" height="800" viewBox="0 0 1200 800">
<defs><linearGradient id="g" x1="0" x2="1" y1="0" y2="1"><stop stop-color="#045A9D"/><stop offset="1" stop-color="#0877C9"/></linearGradient><pattern id="p" width="44" height="44" patternUnits="userSpaceOnUse"><circle cx="4" cy="4" r="2" fill="#fff" opacity=".12"/></pattern></defs>
<rect width="1200" height="800" fill="url(#g)"/><rect width="1200" height="800" fill="url(#p)"/><path d="M0 540L190 430 330 495 510 345 680 430 850 250 1200 470V800H0Z" fill="#fff" fill-opacity=".12"/><path d="M0 625L230 485 400 575 620 420 830 555 1020 420 1200 520V800H0Z" fill="#fff" fill-opacity=".16"/><circle cx="960" cy="180" r="85" fill="#F4CD00" fill-opacity=".85"/>
<rect x="72" y="76" width="78" height="8" rx="4" fill="#F4CD00"/>
<text x="72" y="145" font-family="Arial, sans-serif" font-size="54" font-weight="700" fill="#fff">Sejarah</text>
<text x="74" y="198" font-family="Arial, sans-serif" font-size="25" fill="#fff" opacity=".82">Perjalanan dan transformasi madrasah</text>
<text x="74" y="735" font-family="Arial, sans-serif" font-size="22" fill="#fff" opacity=".72">MAN 1 LAMPUNG SELATAN</text>
</svg>